<?xml version="1.0" encoding="UTF-8"?>
<svg width="947px" height="447px" viewBox="0 0 947 447" version="1.1" xmlns="http://www.w3.org/2000/svg" xmlns:xlink="http://www.w3.org/1999/xlink">
    <title>Artboard</title>
    <g id="Artboard" stroke="none" stroke-width="1" fill="none" fill-rule="evenodd">
        <path d="M326.684,150.987 C324.717,169.101 313.588,194.633 280.202,194.633 C272.002552,194.737217 263.895978,192.888986 256.552,189.241 C260.45177,184.851933 263.885497,180.069984 266.798,174.972 C271.174362,177.094891 275.991977,178.149097 280.855,178.048 C293.73,178.048 304.861,168.445 308.135,150.987 L308.135,150.987 Z M712.448,73.954 C721.612,73.954 754.784,76.573 754.784,105.816 L754.784,171.502 C754.784,176.302 757.184,178.268 761.114,178.268 C763.24416,178.162135 765.360934,177.869682 767.44,177.394 L767.44,191.362 C764.17,192.234 761.329,193.543 756.966,193.543 C739.943,193.543 737.326,184.813 736.666,176.084 C729.245,184.157 717.683,194.633 695.421,194.633 C674.471,194.633 659.632,181.321 659.632,161.68 C659.632,152.08 662.468,129.818 694.332,125.891 L725.973,121.964 C730.555,121.528 736.013,119.78 736.013,108.435 C736.013,96.435 727.281,89.885 709.169,89.885 C687.347,89.885 684.292,103.198 682.982,111.924 L665.309,111.924 C666.185,84.648 684.297,73.954 712.448,73.954 Z M609.492,73.957 C639.392,73.957 650.737,95.781 652.266,115.64 L633.722,115.636 C631.322,100.359 622.81,91.192 606.661,91.192 C582.875,91.192 575.237,113.892 575.237,134.185 C575.237,153.823 580.037,178.047 606.437,178.047 C619.314,178.047 630.442,168.447 633.717,150.986 L652.266,150.986 C650.301,169.1 639.166,194.632 605.784,194.632 C573.705,194.632 554.718,170.41 554.718,137.457 C554.718,102.104 571.741,73.957 609.492,73.957 Z M922.001,73.953 C932.043,73.953 939.949,76.453 946.138,80.476 C942.243826,85.3531664 938.901474,90.6463971 936.172,96.259 C931.894,92.972 926.27,91.192 919.164,91.192 C898.917,91.192 890.395,107.641 888.301,125.051 L888.301,125.051 L928.133,125.051 C927.882,127.701 927.742,130.38 927.742,133.093 C927.741818,136.001021 927.890345,138.90715 928.187,141.8 L928.187,141.8 L888.007,141.8 C889.302,159.564 895.878,178.048 918.944,178.048 C925.567063,178.053157 931.914065,175.395149 936.557,170.672 C939.283086,176.154485 942.59687,181.324498 946.44,186.091 C939.562,191.241 930.408,194.628 918.293,194.628 C886.215,194.628 867.229,170.406 867.229,137.453 C867.229,102.105 884.249,73.953 922.001,73.953 Z M386.294,73.953 C422.738,73.953 439.325,104.724 439.325,134.186 C439.325,163.648 422.738,194.414 386.294,194.414 C349.85,194.414 333.265,163.645 333.265,134.186 C333.265,104.727 349.85,73.953 386.294,73.953 Z M503.768,73.954 C521.442,73.954 543.701,81.154 543.701,113.672 L543.698,191.361 L524.498,191.361 L524.498,121.092 C524.498,101.231 518.825,91.192 500.057,91.192 C489.145,91.192 469.941,98.177 469.941,129.165 L469.941,191.365 L450.741,191.365 L450.741,77.228 L468.849,77.228 L468.849,93.377 L469.287,93.377 C473.431,87.266 484.124,73.954 503.768,73.954 Z M785.163,77.227 L814.839,170.191 L815.277,170.191 L847.576,77.227 L868.528,77.227 L825.103,191.361 L804.589,191.361 L762.903,77.227 L785.163,77.227 Z M735.58,133.093 C732.525,135.493 727.724,137.239 703.935,140.293 C694.552,141.603 679.496,144.439 679.496,158.843 C679.496,171.281 685.824,178.702 700.229,178.702 C718.122,178.702 735.58,167.135 735.58,151.86 L735.58,133.093 Z M386.294,90.539 C358.797,90.539 353.122,118.908 353.122,134.185 C353.122,149.462 358.799,177.829 386.294,177.829 C413.794,177.829 419.466,149.46 419.466,134.185 C419.466,118.91 413.791,90.539 386.294,90.539 Z M283.142931,73.9439962 L283.913,73.953 C313.813,73.953 325.16,95.777 326.689,115.636 L326.689,115.636 L308.135,115.636 C305.732,100.359 297.223,91.193 281.077,91.193 C276.665218,91.1334201 272.29758,92.0771827 268.304,93.953 C265.592226,88.7591382 262.348501,83.8608761 258.625,79.337 C266.532292,75.6338999 275.183033,73.7920939 283.913,73.953 Z" id="Combined-Shape" fill="#000000" fill-rule="nonzero"></path>
        <path d="M499.655,208.612 C514.511,208.612 527.995,211.115333 540.107,216.122 C551.861336,220.872526 562.321042,228.343745 570.627,237.922 L545.435,261.177 C533.323667,248.421667 518.709333,242.043 501.592,242.041 C490.769333,242.041 481.16,244.302 472.764,248.824 C464.525583,253.190676 457.715637,259.832967 453.145,267.96 C448.459,276.196667 446.117333,285.643667 446.12,296.301 C445.947096,306.122773 448.370427,315.816097 453.145,324.401 C457.709087,332.523245 464.466627,339.197268 472.645,343.66 C480.961,348.263333 490.448333,350.563333 501.107,350.56 C511.727452,350.723346 522.219795,348.225055 531.627,343.293 L531.627,293.636 L567.48,293.636 L567.48,362.436 C557.840919,369.598387 547.016956,375.009184 535.503,378.421 C523.657045,382.09462 511.327489,383.972469 498.925,383.992 C481.325,383.992 465.499333,380.237667 451.448,372.729 C437.755987,365.560034 426.312732,354.744921 418.383,341.479 C410.388333,328.155667 406.393,313.096667 406.393,296.302 C406.393,279.507333 410.391,264.448333 418.383,251.125 C426.363964,237.814394 437.898643,226.993101 451.691,219.877 C465.901,212.367 481.889,208.612 499.655,208.612 Z M342.928,211.523 L418.748,381.087 L377.567,381.087 L362.55,344.752 L283.823,344.752 L268.803,381.087 L228.591,381.087 L304.171,211.523 L342.928,211.523 Z M657.834,211.518 C672.854,211.518 685.895,214.021333 696.957,219.028 C708.019,224.034667 716.537333,231.14 722.512,240.344 C728.484667,249.548667 731.472667,260.448667 731.476,273.044 C731.479333,285.639333 728.451667,296.500333 722.393,305.627 C716.335,314.752333 707.735,321.736333 696.593,326.579 L734.623,381.079 L692.469,381.083 L659.769,333.846 L623.676,333.846 L623.676,381.083 L584.434,381.083 L584.434,211.518 L657.834,211.518 Z M787.182,211.518 L787.182,381.082 L747.938,381.082 L747.938,211.518 L787.182,211.518 Z M323.306,250.034 L296.42,314.952 L350.197,314.952 L323.306,250.034 Z M655.651,243.495 L623.674,243.495 L623.674,302.595 L655.651,302.595 C667.437,302.595 676.399,300.011667 682.537,294.845 C688.675,289.678333 691.744001,282.411667 691.744001,273.045 C691.746,263.516333 688.678,256.209333 682.54,251.124 L682.537,251.124 C676.396333,246.038 667.434333,243.495 655.651,243.495 Z" id="Combined-Shape" fill="#007938" fill-rule="nonzero"></path>
        <path d="M48.849,211.875 C70.68532,222.39492 77.1418848,225.628416 82.2900701,228.419563 L82.694044,228.639122 L82.694044,228.639122 L83.09412,228.857592 L83.09412,228.857592 L83.4918368,229.07572 C83.7565369,229.221192 84.02069,229.366935 84.2863475,229.513947 L84.6862186,229.735542 C85.4892432,230.181134 86.31504,230.64264 87.219,231.147 C94.752,235.35 106.319,244.29 106.319,260.058 L106.319,446.301 C106.319,446.301 99.487,444.375 99.487,428.606 L99.487,278.106 C99.487,265.314 91.777,258.832 80.038,251.649 C68.41639,244.53783 20.6183089,228.837064 19.6635094,184.152956 L19.649,182.79 C19.649,182.79 20.117,198.033 48.849,211.875 Z M29.2,240.6 C51.03632,251.11992 57.4928848,254.353416 62.6410701,257.144563 L63.045044,257.364122 L63.045044,257.364122 L63.44512,257.582592 L63.44512,257.582592 L63.8428368,257.80072 C64.1075369,257.946192 64.37169,258.091935 64.6373475,258.238947 L65.0372186,258.460542 C65.8402432,258.906134 66.66604,259.36764 67.57,259.872 C75.103,264.075 86.67,273.015 86.67,288.783 L86.67,417.236 C86.67,417.236 79.838,415.31 79.838,399.536 L79.838,306.825 C79.838,294.035 72.128,287.553 60.389,280.368 C48.76739,273.25485 0.9693089,257.561905 0.014509439,212.877954 L0.000783968,211.533158 C0.0300256,212.12416 1.04264,227.03484 29.2,240.6 Z M205.957784,182.794 L205.94349,184.152956 C204.988671,228.837064 157.18961,244.53783 145.568,251.649 C133.829,258.832 126.119,265.314 126.119,278.106 L126.119,278.106 L126.119,393.928 C126.119,409.699 119.285,411.628 119.285,411.628 L119.285,411.628 L119.285,260.058 C119.285,244.29 130.849,235.35 138.385,231.147 C139.74148,230.39046 140.921996,229.730342 142.113509,229.07572 L142.511344,228.857592 L142.511344,228.857592 L142.911532,228.639122 L142.911532,228.639122 L143.315613,228.419563 C148.465115,225.628416 154.92168,222.39492 176.758,211.875 C204.91536,198.30984 205.927974,183.39916 205.957216,182.808158 L205.957784,182.794 Z M225.603784,211.519 L225.589491,212.877954 C224.634711,257.561905 176.83761,273.25485 165.216,280.368 C153.477,287.553 145.767,294.035 145.767,306.825 L145.767,306.825 L145.767,364.863 C145.767,380.635 138.933,382.563 138.933,382.563 L138.933,382.563 L138.933,288.783 C138.933,273.015 150.499,264.075 158.033,259.872 C158.7864,259.4517 159.48549,259.06116 160.162332,258.684789 L160.566024,258.460542 L160.566024,258.460542 L160.965915,258.238947 C161.231585,258.091935 161.495746,257.946192 161.760452,257.80072 L162.158176,257.582592 L162.158176,257.582592 L162.558255,257.364122 C167.78126,254.518554 173.99148,251.39676 196.404,240.6 C224.56332,227.03484 225.574053,212.12416 225.603218,211.533158 L225.603784,211.519 Z" id="Combined-Shape" fill="#007938" fill-rule="nonzero"></path>
        <path d="M43.613,92.173 C60.6875457,92.173 77.0626424,98.9564249 89.1358881,111.030233 C101.209134,123.104042 107.991,139.479454 107.991,156.554 L107.991,212.062 C90.9164543,212.062 74.5413576,205.278575 62.4681119,193.204767 C50.3948661,181.130958 43.613,164.755546 43.613,147.681 L43.613,92.173 Z M181.993,49.797 L181.993,147.681 C181.993,164.755719 175.210997,181.131283 163.137535,193.20512 C151.064073,205.278957 134.688719,212.062 117.614,212.062 L117.614,212.062 L117.614,114.176 C117.614,78.6204601 146.43746,49.797 181.993,49.797 L181.993,49.797 Z" id="Combined-Shape" fill="#BC8D42" fill-rule="nonzero"></path>
        <path d="M105.021,110.013 C106.965756,75.0216836 132.224402,45.7246593 166.548,38.649 C159.810928,18.6068885 142.480583,3.9792017 121.591711,0.703622106 C100.70284,-2.57195749 79.7268906,6.04892717 67.1784378,23.0668795 C54.6299851,40.0848319 52.594412,62.6716985 61.898,81.659 C79.0964975,85.8901817 94.3200255,95.8998728 105.021,110.013 L105.021,110.013 Z" id="Path_81" fill="#F8E412" fill-rule="nonzero"></path>
    </g>
</svg>