<?xml version="1.0" encoding="UTF-8"?>
<svg width="134px" height="36px" viewBox="0 0 134 36" version="1.1" xmlns="http://www.w3.org/2000/svg" xmlns:xlink="http://www.w3.org/1999/xlink">
    <title>526E60DF-038A-4EA3-9AD1-94E80DB704F3</title>
    <g id="Wireframes" stroke="none" stroke-width="1" fill="none" fill-rule="evenodd">
        <g id="404-not-found" transform="translate(-44.000000, -45.000000)" fill-rule="nonzero">
            <g id="components/header" transform="translate(24.000000, 24.000000)">
                <g id="concaveLogo" transform="translate(20.000000, 21.000000)">
                    <g id="Group_56" transform="translate(89.000000, 10.000000)" fill="#007938">
                        <path d="M10.7917152,10.8676018 L4.44948093,10.8676018 L3.23947217,13.7681035 L0,13.7681035 L6.08871249,0.232375413 L9.2109701,0.232375413 L15.319017,13.7681035 L12.0014823,13.7681035 L10.7917152,10.8676018 Z M9.79655956,8.48876725 L7.63022498,3.30658 L5.46429319,8.48876725 L9.79655956,8.48876725 Z" id="Path_92"></path>
                        <path d="M24.4125308,6.78718212 L27.3008427,6.78718212 L27.3008427,12.2792565 C26.5243199,12.8510059 25.6523431,13.2829318 24.7247807,13.5552857 C23.7704726,13.8485385 22.7772055,13.9984409 21.778063,14 C20.3602099,14 19.0852968,13.7003041 17.9533236,13.1009123 C16.8502973,12.5286377 15.9284305,11.6653033 15.2896126,10.6063291 C14.6455636,9.54277189 14.3237001,8.34066218 14.3237001,7 C14.3237001,5.65933782 14.6457784,4.45722811 15.2896126,3.39367089 C15.9325578,2.33112967 16.8617896,1.46730194 17.9728997,0.899247349 C19.117655,0.299749116 20.4056456,0 21.8368717,0 C23.0336686,0 24.1199375,0.199832744 25.0956782,0.599498232 C26.0426056,0.978716866 26.8852379,1.57511934 27.5543645,2.33971947 L25.524901,4.19608849 C24.549214,3.17787281 23.3718857,2.66868514 21.9929161,2.66852549 C21.1210438,2.66852549 20.3469175,2.84901357 19.6705371,3.20998974 C19.0068516,3.55856688 18.4582434,4.08879886 18.0900337,4.73755274 C17.7125303,5.39505835 17.523886,6.14918083 17.5241008,6.99992017 C17.5101717,7.78395949 17.7053949,8.5577452 18.0900337,9.24304938 C18.4577158,9.89142111 19.0021021,10.4241861 19.6609505,10.7804311 C20.3308861,11.1478998 21.0951841,11.3315011 21.9538446,11.331235 C22.8094265,11.3442744 23.6546879,11.1448442 24.4125308,10.7511347 L24.4125308,6.78718212 Z" id="Path_93"></path>
                        <path d="M37.3699361,13.7677842 L34.7356295,9.9970122 L31.8279833,9.9970122 L31.8279833,13.7677842 L28.6666541,13.7677842 L28.6666541,0.23197628 L34.5797462,0.23197628 C35.7897549,0.23197628 36.8403358,0.431809024 37.7314887,0.831474512 C38.6226416,1.23114 39.3088772,1.79833504 39.7901953,2.53305964 C40.2713524,3.26783746 40.5120652,4.13794807 40.5123337,5.14339149 C40.5126022,6.14883491 40.2686939,7.01583229 39.7806087,7.74438362 C39.2925772,8.47282852 38.5997626,9.03033793 37.7021649,9.41691185 L40.7658555,13.7674649 L37.3699361,13.7677842 Z M36.5698158,3.39359106 C36.0751247,2.98759266 35.3531475,2.78459345 34.4038841,2.78459345 L31.8278221,2.78459345 L31.8278221,7.50234918 L34.4038841,7.50234918 C35.3533623,7.50234918 36.0753396,7.29613031 36.5698158,6.88369255 C37.0642921,6.4712548 37.3115303,5.89118105 37.3115303,5.14347132 C37.3116914,4.38282967 37.0645338,3.79953625 36.5700575,3.39359106 L36.5698158,3.39359106 Z" id="Path_94"></path>
                        <polygon id="Path_95" points="41.8385098 0.23197628 45 0.23197628 45 13.7677044 41.8385098 13.7677044"></polygon>
                    </g>
                    <g id="Group_50" transform="translate(71.000000, 0.000000)">
                        <g id="Group_47" transform="translate(1.567712, 14.743552)" fill="#007938">
                            <path d="M0,0 C0,0 0.0373397635,1.22959585 2.32974593,2.34617827 C4.62215209,3.46276069 4.79010124,3.56173819 5.39112782,3.9007785 C5.99215439,4.2398188 6.91503697,4.9609752 6.91503697,6.23292084 L6.91503697,21.2564477 C6.91503697,21.2564477 6.36994025,21.1010845 6.36994025,19.8290582 L6.36994025,7.68878556 C6.36994025,6.65690272 5.75479158,6.134024 4.81818585,5.55459823 C3.88158011,4.97517246 0,3.68878756 0,0 Z" id="Path_77"></path>
                            <path d="M14.8648162,0 C14.8648162,0 14.8274765,1.22959585 12.5350703,2.34617827 C10.2426641,3.46276069 10.074715,3.56173819 9.47344905,3.9007785 C8.87218312,4.2398188 7.9495399,4.9609752 7.9495399,6.23292084 L7.9495399,18.4595064 C7.9495399,18.4595064 8.49479619,18.3039012 8.49479619,17.0317135 L8.49479619,7.68878556 C8.49479619,6.65690272 9.10994486,6.134024 10.0465506,5.55459823 C10.9831563,4.97517246 14.8648162,3.68878756 14.8648162,0 Z" id="Path_78"></path>
                        </g>
                        <g id="Group_48" transform="translate(0.000000, 17.060691)" fill="#007938">
                            <path d="M0,0 C0,0 0.0373397635,1.22959585 2.32974593,2.34617827 C4.62215209,3.46276069 4.79010124,3.56173819 5.39112782,3.9007785 C5.99215439,4.2398188 6.91503697,4.9609752 6.91503697,6.23292084 L6.91503697,16.5947444 C6.91503697,16.5947444 6.36994025,16.4393811 6.36994025,15.1669515 L6.36994025,7.68830156 C6.36994025,6.65658005 5.75479158,6.13370133 4.81818585,5.55411423 C3.88158011,4.97452713 0,3.68878756 0,0 Z" id="Path_79"></path>
                            <path d="M18,0 C18,0 17.9628198,1.22959585 15.6702541,2.34617827 C13.3776883,3.46276069 13.2098988,3.56173819 12.6087924,3.9007785 C12.007686,4.2398188 11.0848832,4.9609752 11.0848832,6.23292084 L11.0848832,13.797803 C11.0848832,13.797803 11.6301395,13.6422785 11.6301395,12.3700102 L11.6301395,7.68830156 C11.6301395,6.65658005 12.2452882,6.13370133 13.1818939,5.55411423 C14.1184997,4.97452713 18,3.68878756 18,0 Z" id="Path_80"></path>
                        </g>
                        <path d="M8.37918654,8.87290362 C8.53435053,6.05028488 10.5496323,3.6870034 13.2881686,3.11623641 C12.7506459,1.49951416 11.36793,0.319553324 9.70129431,0.0553245582 C8.03465859,-0.208904208 6.36107529,0.486510344 5.35988671,1.85928497 C4.35869812,3.2320596 4.19628825,5.05405773 4.93858265,6.58569239 C6.31077887,6.92700601 7.52540052,7.73445039 8.37918654,8.87290362 L8.37918654,8.87290362 Z" id="Path_81" fill="#F8E412"></path>
                        <g id="Group_49" transform="translate(3.479699, 4.015504)" fill="#BC8D42">
                            <path d="M5.13645148,13.0893112 L5.13645148,13.0893112 C3.77414486,13.0893112 2.46764435,12.5421177 1.50437055,11.5681687 C0.541096747,10.5942197 0,9.27327632 0,7.89593652 L0,3.41831358 L0,3.41831358 C1.36230662,3.41831358 2.66880713,3.96550711 3.63208093,4.93945612 C4.59535473,5.91340512 5.13645148,7.23434848 5.13645148,8.61168828 L5.13645148,13.0893112 Z" id="Path_82"></path>
                            <path d="M5.90423042,13.0893112 L5.90423042,13.0893112 C7.26655086,13.0893112 8.57307187,12.5421485 9.53636293,11.5681972 C10.499654,10.5942459 11.0407617,9.2732903 11.0407617,7.89593652 L11.0407617,0 L11.0407617,0 C8.2039338,0 5.90423042,2.32508082 5.90423042,5.19321337 L5.90423042,13.0893112 Z" id="Path_83"></path>
                        </g>
                    </g>
                    <g id="Group_53" transform="translate(0.000000, 12.000000)" fill="#FFFFFF">
                        <g id="Group_51" transform="translate(7.783742, 0.000965)">
                            <path d="M5.380627,0 C9.07844462,0 10.7614569,3.05940947 10.7614569,5.9886715 C10.7614569,8.91793353 9.07844462,11.9768459 5.380627,11.9768459 C1.68280938,11.9768459 0,8.91763525 0,5.9886715 C0,3.05970775 1.68280938,0 5.380627,0 Z M5.380627,10.3278807 C8.17093499,10.3278807 8.7464487,7.50729034 8.7464487,5.98857208 C8.7464487,4.46985381 8.1706306,1.64906456 5.380627,1.64906456 C2.59062341,1.64906456 2.0148053,4.46965496 2.0148053,5.98857208 C2.0148053,7.50748919 2.59082634,10.3278807 5.380627,10.3278807 Z" id="Path_84"></path>
                            <path d="M21.3517412,11.6733011 L19.4035988,11.6733011 L19.4035988,4.68679936 C19.4035988,2.71211763 18.8279837,1.71398914 16.9236746,1.71398914 C15.8164804,1.71398914 13.8679322,2.4084734 13.8679322,5.48945812 L13.8679322,11.6736988 L11.9197899,11.6736988 L11.9197899,0.325617173 L13.7571316,0.325617173 L13.7571316,1.93123297 L13.8015736,1.93123297 C14.2220476,1.32364624 15.3070208,9.94250909e-05 17.3002139,9.94250909e-05 C19.0935195,9.94250909e-05 21.3520455,0.71596008 21.3520455,3.94906519 L21.3517412,11.6733011 Z" id="Path_85"></path>
                            <path d="M30.4860934,4.14433606 C30.2425756,2.62541895 29.3788992,1.71398914 27.7403289,1.71398914 C25.3268647,1.71398914 24.5518693,3.97093871 24.5518693,5.98857208 C24.5518693,7.94108201 25.0389049,10.3495554 27.7176005,10.3495554 C29.0241749,10.3495554 30.1532858,9.39507454 30.4855861,7.65901303 L32.3676742,7.65901303 C32.168294,9.45999912 31.0384729,11.9985205 27.6513434,11.9985205 C24.3964238,11.9985205 22.4698937,9.59024599 22.4698937,6.31389097 C22.4698937,2.79891573 24.197145,0.000397700364 28.0275784,0.000397700364 C31.0614042,0.000397700364 32.212533,2.17025088 32.3676742,4.14473376 L30.4860934,4.14433606 Z" id="Path_86"></path>
                            <path d="M33.6910919,3.77527013 C33.7799759,1.06335135 35.6177235,9.94250909e-05 38.4740856,9.94250909e-05 C39.4039177,9.94250909e-05 42.7697394,0.260493738 42.7697394,3.16798167 L42.7697394,9.69881819 C42.7697394,10.1760586 43.0132572,10.3715284 43.4120176,10.3715284 C43.6281559,10.3610027 43.8429359,10.3319255 44.0538899,10.2846308 L44.0538899,11.6734005 C43.7220969,11.7600992 43.4338327,11.8902466 42.9911377,11.8902466 C41.2638863,11.8902466 40.9983505,11.0222656 40.9313831,10.154384 C40.1784058,10.9570427 39.0052588,11.99862 36.7464284,11.99862 C34.620721,11.99862 33.1150709,10.6750732 33.1150709,8.72226495 C33.1150709,7.76778408 33.4028277,5.5543827 36.6359322,5.16394037 L39.8464099,4.77349804 C40.3113259,4.7301487 40.8651259,4.55635364 40.8651259,3.42837598 C40.8651259,2.23527489 39.979127,1.58404055 38.1413795,1.58404055 C35.927194,1.58404055 35.6172161,2.90768678 35.484296,3.77527013 L33.6910919,3.77527013 Z M40.8211913,5.87999988 C40.5112134,6.11862009 40.0240764,6.2922163 37.6103078,6.59586053 C36.6582547,6.7261074 35.1305864,7.00807696 35.1305864,8.44019597 C35.1305864,9.67684525 35.7726616,10.4146788 37.2342757,10.4146788 C39.0498023,10.4146788 40.8211913,9.26462882 40.8211913,7.74591056 L40.8211913,5.87999988 Z" id="Path_87"></path>
                            <polygon id="Path_88" points="52.1849489 0.325517748 54.3108592 0.325517748 49.9047092 11.6733011 47.8232409 11.6733011 43.5935398 0.325517748 45.8521673 0.325517748 48.8632648 9.5684719 48.9077068 9.5684719"></polygon>
                        </g>
                        <g id="Group_52">
                            <path d="M2.39966487,11.9995849 C5.78720024,11.9995849 6.91641252,9.46106348 7.11599564,7.66007738 L5.23390753,7.66007738 C4.90170868,9.39584062 3.77229347,10.3506198 2.465922,10.3506198 C1.97249177,10.3606714 1.48366889,10.2558568 1.03961802,10.0447882 C0.744098747,10.5516557 0.39569308,11.0271014 0,11.4634848 C0.745162184,11.8261862 1.56770173,12.0099467 2.39966487,11.9995849 Z" id="Path_89"></path>
                            <path d="M5.23390753,4.14530099 L7.11650297,4.14530099 C6.96136184,2.17081811 5.81003003,0.00096492796 2.77620425,0.00096492796 C1.89041163,-0.0150331717 1.01265776,0.168088552 0.21033849,0.536269617 C0.588146344,0.986056406 0.91727328,1.47306656 1.19242544,1.98946675 C1.59763701,1.80296344 2.04080263,1.70912975 2.4884474,1.7150535 C4.12671332,1.7150535 4.99008535,2.62638388 5.23390753,4.14530099 Z" id="Path_90"></path>
                            <path d="M67.2100979,10.3506198 C64.869689,10.3506198 64.2024503,8.51284638 64.0710521,6.74665907 L68.1479458,6.74665907 C68.1178455,6.45903715 68.102775,6.17009509 68.1027935,5.8809648 C68.1027935,5.61122453 68.1169987,5.34486471 68.1424666,5.08138822 L64.100883,5.08138822 C64.3133523,3.35039739 65.1780434,1.71495407 67.2324203,1.71495407 C67.9534359,1.71495407 68.5240793,1.89193073 68.9581497,2.21874101 C69.2350979,1.66070745 69.5742321,1.13442751 69.9693573,0.649514796 C69.3413858,0.249527655 68.5391977,0.00096492796 67.5202787,0.00096492796 C63.6897438,0.00096492796 61.9627969,2.79998009 61.9627969,6.3144582 C61.9627969,9.59081322 63.8892255,11.9990878 67.1440437,11.9990878 C68.3733012,11.9990878 69.3021186,11.662335 70,11.1502958 C69.610054,10.6763859 69.2738184,10.1623568 68.997214,9.61726029 C68.5261152,10.0868598 67.8821118,10.3511325 67.2100979,10.3506198 L67.2100979,10.3506198 Z" id="Path_91"></path>
                        </g>
                    </g>
                </g>
            </g>
        </g>
    </g>
</svg>